<svg width="81" height="81" viewBox="0 0 81 81" fill="none" xmlns="http://www.w3.org/2000/svg">
<path d="M38.4087 80.002H41.6104C41.7174 79.9792 41.8256 79.9622 41.9345 79.9513C45.4911 79.7925 48.9756 79.2008 52.3434 78.0527C63.9029 74.1109 72.1073 66.5281 76.9566 55.3041C78.5414 51.635 79.4546 47.7758 79.8174 43.7918C79.8841 43.042 79.9415 42.2908 80.0035 41.5403V38.4716C79.9855 38.3382 79.9575 38.2114 79.9515 38.08C79.8377 35.3939 79.4406 32.7274 78.7669 30.1247C76.6277 21.9045 72.3348 15.0139 65.8666 9.51693C59.3985 4.01993 51.9172 0.923199 43.4734 0.160023C39.006 -0.244783 34.5023 0.120079 30.1583 1.23874C23.7348 2.87983 18.0351 5.90852 13.1558 10.3935C5.4882 17.4422 1.16011 26.1611 0.171578 36.5503C-0.315866 41.6974 0.237874 46.89 1.79978 51.8185C4.54925 60.5492 9.67176 67.5492 17.1673 72.8185C23.1138 76.9946 29.7414 79.3215 36.9872 79.8839C37.4581 79.9206 37.9344 79.9626 38.4087 80.002ZM30.3717 32.4616C32.4101 29.9466 35.0108 28.4215 38.2052 27.8939C37.717 23.8245 37.2327 19.7824 36.7484 15.7444C37.9738 15.4269 42.248 15.4335 43.2666 15.7751C42.7823 19.8085 42.2972 23.8503 41.8111 27.9005C43.3425 28.1284 44.8166 28.6455 46.1548 29.4242C47.497 30.2075 48.68 31.2363 49.642 32.4569L59.4899 25.0893C60.5411 26.3135 62.3828 29.553 62.711 30.7531L51.4336 35.5763C52.5455 38.611 52.5175 41.6043 51.3669 44.5903L62.7697 49.4696C61.921 51.4851 60.8145 53.3819 59.4779 55.1127L49.5533 47.6704C47.5142 50.1267 44.9381 51.6103 41.7878 52.1214C42.2847 56.2615 42.777 60.3655 43.2733 64.4976C41.0767 64.7558 38.9243 64.7645 36.7451 64.4763C37.2427 60.3362 37.7356 56.2334 38.2306 52.1173C35.0515 51.6003 32.4842 50.104 30.4638 47.6731L20.5118 55.1227C19.1938 53.3825 18.1063 51.4792 17.276 49.4603L28.6595 44.5957C28.0774 43.1593 27.7741 41.6252 27.7656 40.0753C27.7597 38.54 28.0381 37.0169 28.5867 35.583C24.7847 33.9559 21.0294 32.3468 17.274 30.7398C17.7816 29.2021 19.9014 25.663 20.5878 25.1213L30.3717 32.4616ZM7.34408 56.7444C4.98148 52.3515 3.08513 46.0313 3.29524 38.9546C3.4412 33.4807 4.82089 28.1103 7.3314 23.2441L9.74068 24.4335C9.27377 25.4949 8.78684 26.5016 8.37596 27.5443C7.96507 28.587 7.62089 29.6677 7.24202 30.7518C7.73495 30.8939 8.15918 31.0186 8.58407 31.138L9.89277 31.5083C8.33794 37.1907 8.34061 42.8358 9.89277 48.5023L7.24202 49.2568C7.62823 50.3555 7.97041 51.4329 8.38463 52.4816C8.79885 53.5303 9.28378 54.543 9.74335 55.5857C8.97828 55.9626 8.22321 56.3348 7.46681 56.7064C7.42694 56.7217 7.38589 56.7338 7.34408 56.7424V56.7444ZM70.1263 48.5003C71.6798 42.8225 71.6771 37.1774 70.1263 31.5109L72.7337 30.7664C72.1166 28.5838 71.2825 26.4685 70.2437 24.4522L71.4536 23.8558L72.6923 23.2447C75.7352 29.2514 77.0588 35.5919 76.6631 42.2661C76.3589 47.3695 75.0335 52.2052 72.6869 56.7731L70.243 55.5656C71.2837 53.5471 72.1184 51.4288 72.7343 49.2428L70.1263 48.5003ZM17.5462 61.7758C21.7484 66.0273 26.6284 68.8565 32.3087 70.3382C32.084 71.2401 31.8678 72.1034 31.6497 72.9753C33.8473 73.5304 36.0947 73.8656 38.3586 73.9759C38.2999 74.8979 38.2439 75.7771 38.1879 76.6577C33.1625 76.501 26.1495 74.9426 19.6106 70.5463C15.4361 67.7532 11.8765 64.1361 9.15037 59.9172L11.4263 58.4175C12.6726 60.3434 14.1075 62.1404 15.7099 63.7818C16.3249 63.1114 16.9232 62.4562 17.5462 61.7751V61.7758ZM41.8258 76.6797C41.7691 75.7665 41.7138 74.8866 41.6571 73.9759C43.9443 73.8519 46.1648 73.5483 48.366 72.9753C48.1419 72.08 47.9271 71.2241 47.705 70.3402C53.408 68.8545 58.2979 66.0166 62.4982 61.7584L64.3178 63.7718C65.9155 62.1327 67.3472 60.3397 68.5921 58.4189L70.836 59.9012C70.1729 61.3769 66.6831 65.4542 64.1624 67.6624C60.2891 71.0664 55.7363 73.6076 50.806 75.1174C47.8924 76.0191 44.8754 76.5439 41.8285 76.6791L41.8258 76.6797ZM32.3101 9.67904C26.613 11.164 21.7244 14.0039 17.5315 18.2534C16.9072 17.565 16.3115 16.9065 15.7045 16.2374C14.1046 17.8783 12.6711 19.6736 11.4249 21.597L9.16905 20.1073C12.2747 15.152 17.5182 9.99058 24.3645 6.77777C28.7026 4.73222 33.4013 3.56202 38.1919 3.33413L38.3593 6.0386C36.0781 6.16335 33.8562 6.47023 31.651 7.04328C31.8712 7.93187 32.0866 8.78844 32.3101 9.67904ZM47.707 9.67904C47.9344 8.7731 48.1492 7.91653 48.368 7.04194C46.1488 6.46823 43.9269 6.16869 41.6584 6.03794C41.7171 5.11532 41.7725 4.24408 41.8272 3.37817C44.9301 2.9779 53.1058 5.27142 57.6883 7.81712C63.0907 10.8178 67.4851 14.9116 70.8713 20.0987L68.5994 21.6017C67.3666 19.6974 65.9488 17.9196 64.3665 16.2941L62.4195 18.1827C58.2866 13.9899 53.4 11.164 47.707 9.67637V9.67904Z" fill="#FFF38A"/>
</svg>
