<svg width="81" height="81" viewBox="0 0 81 81" fill="none" xmlns="http://www.w3.org/2000/svg">
<path d="M76.9743 20.0943C77.0899 20.2135 77.1902 20.3478 77.2726 20.494C77.575 21.2179 77.9033 21.9347 78.1389 22.6828C78.5694 24.0538 78.9903 25.4319 79.324 26.8299C80.0936 30.0483 79.9738 33.3379 80.0051 36.6189C80.0364 39.8999 79.6387 43.097 78.692 46.2073C78.2833 47.5342 77.6744 48.7957 77.1255 50.0728C76.8027 50.8238 76.4444 51.5605 76.0507 52.2758C75.6789 52.9627 75.2334 53.6056 74.8466 54.284C74.3017 55.244 73.7827 56.2182 73.2583 57.1881C73.2041 57.2816 73.1758 57.3889 73.1766 57.4981C73.1943 57.6844 73.1984 57.9447 73.3128 58.0286C73.4272 58.1125 73.6956 58.0656 73.825 57.9703C74.817 57.2628 75.6628 56.3546 76.3123 55.2994C77.2776 53.6876 78.2493 52.0853 79.2273 50.4924C79.3571 50.3133 79.5026 50.1471 79.6618 49.996L79.7981 50.0387C79.809 50.2577 79.8866 50.5009 79.8212 50.6887C79.5379 51.5022 79.245 52.3156 78.8949 53.0993C78.1349 54.8059 77.3775 56.5126 76.4594 58.1452C75.5059 59.8519 74.5047 61.5102 73.3264 63.0518C66.9338 71.4044 58.7907 76.9111 48.7325 79.0231C35.7851 81.7409 24.0296 78.7998 13.6159 70.2766C10.1478 67.4322 7.21372 64.0459 4.7482 60.2359C3.55931 58.3983 2.52823 56.4547 1.66698 54.4276C1.17797 53.2813 0.658983 52.1521 0.265318 50.9646C0.183816 50.676 0.117423 50.3831 0.0664385 50.0871L0.21491 49.9776C0.383818 50.1454 0.597686 50.2848 0.716194 50.4853C1.13847 51.2064 1.5117 51.9573 1.93397 52.6769C2.28813 53.3106 2.67936 53.921 3.10543 54.5044C3.9023 55.5455 4.74003 56.5524 5.58457 57.5522C5.78851 57.7755 6.03425 57.9527 6.30652 58.0727C6.65659 58.2363 6.8759 58.0642 6.79145 57.6873C6.70563 57.3052 6.56802 56.9379 6.3828 56.5965C5.97415 55.8413 5.51101 55.1174 5.09282 54.3679C4.30141 52.9457 3.45823 51.5562 2.75944 50.0913C0.841941 46.2701 -0.104955 41.9992 0.00922989 37.6869C0.00922989 35.0772 -0.0357269 32.4604 0.105938 29.8563C0.22036 27.723 0.697124 25.6324 1.3891 23.6129C1.74735 22.5647 2.18325 21.545 2.59734 20.5182C2.69595 20.3156 2.80838 20.1207 2.93379 19.9351L3.10134 19.9777C3.07273 20.3191 3.05366 20.6604 3.01552 21.0003C2.67907 24.1092 2.81529 27.2224 2.86841 30.3512C2.90547 32.4369 3.23403 34.5057 3.84372 36.4923C4.04172 37.1256 4.28252 37.7434 4.56431 38.3411C5.08874 39.4789 5.58321 40.638 6.21525 41.7075C7.03255 43.0842 7.94247 44.3997 8.86466 45.7024C9.16978 46.1291 9.61249 46.469 10.0266 46.8046C10.4094 47.1147 10.7703 46.9597 10.8657 46.4605C10.9239 46.2166 10.9192 45.9609 10.8521 45.7195C10.4679 44.6742 10.1369 43.5862 9.62611 42.6205C8.50778 40.5242 7.84849 38.2658 7.16741 35.9945C6.10764 32.4589 5.92511 28.8508 6.11717 25.1943C6.17711 24.0722 6.19209 22.9402 6.36373 21.8351C6.52582 20.7927 6.86637 19.7815 7.13063 18.7561C7.33767 17.9539 7.52293 17.1447 7.75995 16.3511C8.9028 12.5368 10.9324 9.25578 13.4633 6.30899C15.1075 4.39329 16.847 2.56718 18.566 0.724014C18.8848 0.382686 19.2117 -0.0510756 19.8737 0.0570114C19.7252 0.351406 19.6149 0.608828 19.4732 0.843491C18.8071 1.93858 18.047 2.9768 17.4776 4.12736C15.9793 7.14668 15.1293 10.3324 15.4616 13.7869C15.6306 15.7178 16.0324 17.6187 16.6576 19.4444C17.2343 21.0905 17.9292 22.6889 18.7363 24.2258C19.8601 26.3591 21.0955 28.427 22.3569 30.4721C23.241 31.9043 23.2777 33.3165 22.6879 34.8525C22.0259 36.5776 21.3952 38.3184 20.8286 40.0791C20.4123 41.3643 20.0707 42.6747 19.8056 44.0029C19.6421 44.8278 19.6516 45.6982 19.653 46.5472C19.653 48.9649 19.5168 51.3912 19.7702 53.7762C19.9731 55.6948 20.6024 57.5778 21.165 59.4352C21.4375 60.3255 21.9932 61.1176 22.4073 61.9624C22.5435 62.2341 22.5803 62.5668 22.7479 62.8072C23.5965 64.0388 24.4042 65.3131 25.3564 66.4552C27.0114 68.4349 28.7141 70.3861 30.8255 71.8595C32.7502 73.2092 34.7758 74.3498 37.0683 74.8817C37.7739 75.0467 37.8611 75.0239 37.9305 74.2673C38.0586 72.8607 38.1825 71.4499 38.2275 70.0391C38.282 68.3538 38.2575 66.6656 38.2561 64.9789C38.2561 64.4854 38.2561 63.8739 37.7834 63.6989C37.526 63.6022 37.056 63.9364 36.7577 64.1782C36.0766 64.7315 35.431 65.3472 34.773 65.9375C34.5209 66.1851 34.2337 66.3909 33.9217 66.5476C33.9404 66.3667 33.9821 66.1893 34.0457 66.02C34.408 65.3359 34.8316 64.6859 35.1585 63.9848C35.5563 63.1315 36.0358 62.2909 35.9758 61.2826C35.9431 60.7208 35.51 60.5715 35.1109 60.5004C33.9489 60.2928 32.7761 60.152 31.6101 59.9642C30.8105 59.8362 30.0136 59.6912 29.2222 59.5148C29.0547 59.4779 28.9212 59.273 28.7727 59.1465C28.9157 58.9957 29.0451 58.7454 29.2045 58.7098C30.5667 58.4112 31.9288 58.1694 33.291 57.8765C34.1369 57.693 34.9746 57.464 35.8096 57.2293C36.2278 57.1113 36.3327 56.7942 36.1815 56.376C35.6939 55.042 35.228 53.7037 34.7158 52.3782C34.4434 51.6771 34.1029 51.0087 33.8345 50.3061C33.7078 49.9762 33.6792 49.6035 33.607 49.2494L33.78 49.1698C34.4611 50.0231 35.1422 50.8934 35.8233 51.7411C36.3409 52.3744 36.8753 52.9907 37.4265 53.5899C37.5546 53.7322 37.778 53.7763 37.9578 53.8659C38.0286 53.6753 38.1526 53.489 38.1635 53.297C38.2997 50.8366 38.4727 48.3762 38.549 45.9115C38.8132 37.2361 39.0448 28.5465 39.2886 19.8654C39.4049 15.7325 39.5206 11.6001 39.636 7.4681C39.636 7.34863 39.6591 7.22774 39.6714 7.10828L39.8212 7.09546C39.9207 8.0654 40.076 9.03249 40.1086 10.0039C40.2449 13.9362 40.3361 17.8714 40.4465 21.8081C40.6408 28.7702 40.8379 35.7309 41.0376 42.6902C41.1316 45.8191 41.2678 48.9579 41.3918 52.0924C41.4122 52.5987 41.4463 53.1064 41.5117 53.6084C41.573 54.0763 41.8154 54.1773 42.1369 53.8516C42.6082 53.3723 43.0387 52.8561 43.4677 52.3256C44.0766 51.5832 44.6637 50.8181 45.2726 50.0743C45.4497 49.8595 45.669 49.6846 45.9741 49.3888C45.951 49.6661 45.9741 49.8083 45.9251 49.9207C45.5668 50.7939 45.2086 51.6685 44.8258 52.5304C44.4172 53.4605 43.9717 54.3793 43.5481 55.3023C43.4903 55.434 43.4447 55.5711 43.4119 55.7119C43.1531 56.7799 43.322 57.181 44.345 57.4185C45.7317 57.7328 47.1442 57.9191 48.5404 58.1893C49.1861 58.3145 49.8236 58.4951 50.4557 58.6857C50.7069 58.7877 50.9486 58.9139 51.1776 59.0625L51.1899 59.2659C50.852 59.3897 50.5224 59.5689 50.1737 59.6258C48.5282 59.896 46.8759 60.1164 45.2318 60.3966C44.7918 60.4832 44.3669 60.639 43.9717 60.8588C43.5331 61.0878 43.4337 61.5002 43.6516 61.9667C44.0903 62.9039 44.537 63.8383 44.9784 64.7741C45.2181 65.2861 45.4579 65.7995 45.6853 66.3172C45.7025 66.4111 45.7025 66.5076 45.6853 66.6016L45.5205 66.7254C45.3952 66.5376 45.2999 66.3158 45.1405 66.1693C44.3232 65.4212 43.525 64.629 42.6395 63.9734C41.8222 63.3704 41.2774 63.7174 41.2896 64.7656C41.2992 65.9261 41.3564 67.0852 41.3945 68.2457C41.4599 70.2026 41.5253 72.1596 41.5907 74.1165C41.6193 74.93 41.7174 75.0666 42.4924 74.94C43.1417 74.8309 43.7773 74.6462 44.3872 74.3896C47.7 72.9987 50.6205 71.019 53.0492 68.2357C54.3119 66.7879 55.6019 65.36 56.6276 63.7302C57.7773 61.9027 58.7512 59.9543 59.2879 57.8153C59.6203 56.487 59.9172 55.1472 60.1938 53.8047C60.2855 53.3244 60.3271 52.8351 60.3177 52.3455C60.3068 49.8254 60.3068 47.3053 60.2292 44.788C60.206 44.0413 59.9867 43.2904 59.7892 42.5622C59.3397 40.8954 58.9324 39.2172 58.1955 37.6443C57.81 36.8222 57.5893 35.9163 57.3101 35.0416C57.1061 34.4539 56.9337 33.8547 56.7938 33.2468C56.6481 32.5357 56.8129 31.9014 57.2161 31.2558C58.1328 29.7895 58.9488 28.2535 59.8042 26.7474C60.1584 26.1301 60.5643 25.5428 60.8762 24.8985C61.4102 23.8077 61.8774 22.6828 62.3923 21.5834C63.5134 19.1856 64.0419 16.6171 64.471 14.0116C64.7202 12.497 64.55 11.0364 64.2748 9.54164C63.9574 7.81509 63.3526 6.2009 62.7138 4.60377C62.3732 3.75045 61.7902 3.0038 61.2917 2.22586C60.883 1.5873 60.4349 0.975755 60.0112 0.345722C59.9717 0.285989 59.9513 0.143783 59.9854 0.111073C60.0507 0.0456518 60.1842 -0.0226456 60.2496 0.00722057C60.5221 0.126685 60.8108 0.236194 61.0165 0.43388C62.0204 1.41093 63.038 2.37518 63.9751 3.42049C65.1643 4.74598 66.3208 6.10846 67.416 7.51928C68.33 8.69686 69.2508 9.90004 69.9618 11.217C70.8772 12.908 71.7327 14.6488 72.1904 16.5673C72.6344 18.4375 73.2951 20.265 73.5525 22.1636C73.825 24.1547 73.7391 26.2126 73.825 28.2407C73.9203 30.5262 73.5702 32.7661 73.0458 34.962C72.3531 37.8612 71.3478 40.669 70.049 43.3316C69.7058 44.0356 69.4279 44.7766 69.1309 45.5033C69.0564 45.6482 69.0202 45.8112 69.026 45.9755C69.0764 46.3126 69.1813 46.6411 69.2644 46.9711C69.5614 46.8715 69.9455 46.8629 70.1376 46.6553C70.8208 45.9161 71.4578 45.1318 72.0446 44.3072C72.7036 43.3811 73.3046 42.4115 73.844 41.4046C75.1122 38.9939 76.2523 36.5151 76.7318 33.7816C76.8816 32.8894 76.9554 31.9852 76.9525 31.0794C76.9661 27.8525 76.9389 24.6255 76.9184 21.3985C76.9184 20.9861 76.8571 20.5722 76.8244 20.1598L76.9743 20.0943Z" fill="#FFF38A"/>
</svg>
